# Blender 5.0.1
# www.blender.org
mtllib steve.mtl
o Cube.002
v -0.671279 1.188489 0.081351
v -0.671278 1.188489 -0.526070
v -0.671278 3.086666 0.081351
v -0.671278 3.086666 -0.526070
v -1.265560 1.188489 0.081351
v -1.265560 1.188489 -0.526070
v -1.265560 3.086666 0.081351
v -1.265560 3.086666 -0.526070
v 0.583338 -0.703388 0.087345
v 0.583338 -0.703388 -0.519202
v 0.583338 1.194788 0.087345
v 0.583338 1.194788 -0.519202
v -0.042369 -0.703388 0.087344
v -0.042369 -0.703388 -0.519202
v -0.042369 1.194788 0.087345
v -0.042369 1.194788 -0.519202
v 1.167175 1.188489 0.081351
v 1.167175 1.188489 -0.526070
v 1.167176 3.086666 0.081351
v 1.167176 3.086666 -0.526070
v 0.572894 1.188489 0.081351
v 0.572894 1.188489 -0.526070
v 0.572894 3.086666 0.081351
v 0.572894 3.086666 -0.526070
v -0.047790 -0.707560 0.087345
v -0.047790 -0.707560 -0.519202
v -0.047790 1.190617 0.087345
v -0.047790 1.190617 -0.519202
v -0.673154 -0.707560 0.087344
v -0.673154 -0.707560 -0.519202
v -0.673153 1.190617 0.087345
v -0.673153 1.190617 -0.519202
v 0.575100 1.188489 0.086432
v 0.575100 1.188489 -0.518289
v 0.575100 3.086666 0.086432
v 0.575100 3.086666 -0.518289
v -0.664499 1.188489 0.086431
v -0.664499 1.188489 -0.518289
v -0.664499 3.086666 0.086432
v -0.664499 3.086666 -0.518289
v 0.584360 3.115890 0.371717
v 0.584360 3.115890 -0.867882
v 0.584360 4.355489 0.371717
v 0.584360 4.355489 -0.867882
v -0.655239 3.115891 0.371716
v -0.655238 3.115891 -0.867882
v -0.655239 4.355489 0.371716
v -0.655238 4.355489 -0.867882
vn 1.0000 -0.0000 -0.0000
vn -0.0000 1.0000 -0.0000
vn -1.0000 -0.0000 -0.0000
vn -0.0000 -1.0000 -0.0000
vn -0.0000 -0.0000 1.0000
vn -0.0000 -0.0000 -1.0000
vt 0.812254 0.014434
vt 0.750156 0.378238
vt 0.750156 0.014434
vt 0.747948 0.380451
vt 0.687680 0.499008
vt 0.687680 0.380451
vt 0.627127 0.379136
vt 0.686712 0.014634
vt 0.686712 0.379136
vt 0.750025 0.382262
vt 0.809389 0.499042
vt 0.750025 0.499042
vt 0.686154 0.376669
vt 0.749684 0.023714
vt 0.749684 0.376670
vt 0.811307 0.376377
vt 0.870846 0.011984
vt 0.870846 0.376377
vt 0.195099 0.014880
vt 0.130431 0.376268
vt 0.130431 0.014880
vt 0.075668 0.491719
vt 0.125486 0.393718
vt 0.125487 0.491719
vt 0.010916 0.374034
vt 0.070909 0.017648
vt 0.070909 0.374034
vt 0.133096 0.376068
vt 0.193889 0.495657
vt 0.133096 0.495657
vt 0.071896 0.375321
vt 0.131193 0.016735
vt 0.129885 0.375321
vt 0.194121 0.378993
vt 0.255217 0.016810
vt 0.255217 0.378993
vt 0.503437 0.017997
vt 0.444910 0.377708
vt 0.444910 0.017997
vt 0.440268 0.496979
vt 0.318393 0.379089
vt 0.444294 0.380089
vt 0.256956 0.375462
vt 0.315298 0.026153
vt 0.315298 0.375462
vt 0.471194 0.395750
vt 0.538434 0.483993
vt 0.471194 0.483993
vt 0.320870 0.386798
vt 0.440786 0.018690
vt 0.440786 0.386798
vt 0.502646 0.374846
vt 0.624541 0.021098
vt 0.624541 0.374846
vt 0.384604 0.501281
vt 0.257938 0.741283
vt 0.258600 0.499943
vt 0.134629 0.984560
vt 0.257438 0.740448
vt 0.257438 0.984560
vt 0.012422 0.738689
vt 0.130222 0.503074
vt 0.130222 0.738689
vt 0.259086 0.749926
vt 0.378912 0.982397
vt 0.259086 0.982397
vt 0.131372 0.741336
vt 0.254348 0.505121
vt 0.254348 0.741336
vt 0.380929 0.742348
vt 0.500557 0.498888
vt 0.500822 0.742348
vt 0.812254 0.378238
vt 0.747948 0.499008
vt 0.627127 0.014634
vt 0.809389 0.382262
vt 0.686155 0.023713
vt 0.811307 0.011984
vt 0.195099 0.376268
vt 0.075668 0.393718
vt 0.010916 0.017648
vt 0.193889 0.376068
vt 0.073204 0.016735
vt 0.194121 0.016810
vt 0.503437 0.377708
vt 0.318217 0.495979
vt 0.256956 0.026153
vt 0.538434 0.395750
vt 0.320870 0.018690
vt 0.502646 0.021099
vt 0.383941 0.742621
vt 0.134629 0.740448
vt 0.012421 0.503074
vt 0.378912 0.749926
vt 0.131372 0.505121
vt 0.380664 0.498888
s 0
usemtl Material.003
f 2/1/1 3/2/1 1/3/1
f 4/4/2 7/5/2 3/6/2
f 8/7/3 5/8/3 7/9/3
f 6/10/4 1/11/4 5/12/4
f 7/13/5 1/14/5 3/15/5
f 4/16/6 6/17/6 8/18/6
f 18/1/1 19/2/1 17/3/1
f 20/4/2 23/5/2 19/6/2
f 24/7/3 21/8/3 23/9/3
f 22/10/4 17/11/4 21/12/4
f 23/13/5 17/14/5 19/15/5
f 20/16/6 22/17/6 24/18/6
f 2/1/1 4/73/1 3/2/1
f 4/4/2 8/74/2 7/5/2
f 8/7/3 6/75/3 5/8/3
f 6/10/4 2/76/4 1/11/4
f 7/13/5 5/77/5 1/14/5
f 4/16/6 2/78/6 6/17/6
f 18/1/1 20/73/1 19/2/1
f 20/4/2 24/74/2 23/5/2
f 24/7/3 22/75/3 21/8/3
f 22/10/4 18/76/4 17/11/4
f 23/13/5 21/77/5 17/14/5
f 20/16/6 18/78/6 22/17/6
usemtl Material.004
f 10/19/1 11/20/1 9/21/1
f 12/22/2 15/23/2 11/24/2
f 16/25/3 13/26/3 15/27/3
f 14/28/4 9/29/4 13/30/4
f 15/31/5 9/32/5 11/33/5
f 12/34/6 14/35/6 16/36/6
f 26/19/1 27/20/1 25/21/1
f 28/22/2 31/23/2 27/24/2
f 32/25/3 29/26/3 31/27/3
f 30/28/4 25/29/4 29/30/4
f 31/31/5 25/32/5 27/33/5
f 28/34/6 30/35/6 32/36/6
f 10/19/1 12/79/1 11/20/1
f 12/22/2 16/80/2 15/23/2
f 16/25/3 14/81/3 13/26/3
f 14/28/4 10/82/4 9/29/4
f 15/31/5 13/83/5 9/32/5
f 12/34/6 10/84/6 14/35/6
f 26/19/1 28/79/1 27/20/1
f 28/22/2 32/80/2 31/23/2
f 32/25/3 30/81/3 29/26/3
f 30/28/4 26/82/4 25/29/4
f 31/31/5 29/83/5 25/32/5
f 28/34/6 26/84/6 30/35/6
usemtl Material.002
f 34/37/1 35/38/1 33/39/1
f 36/40/2 39/41/2 35/42/2
f 40/43/3 37/44/3 39/45/3
f 38/46/4 33/47/4 37/48/4
f 39/49/5 33/50/5 35/51/5
f 36/52/6 38/53/6 40/54/6
f 34/37/1 36/85/1 35/38/1
f 36/40/2 40/86/2 39/41/2
f 40/43/3 38/87/3 37/44/3
f 38/46/4 34/88/4 33/47/4
f 39/49/5 37/89/5 33/50/5
f 36/52/6 34/90/6 38/53/6
usemtl Material.001
f 42/55/1 43/56/1 41/57/1
f 44/58/2 47/59/2 43/60/2
f 48/61/3 45/62/3 47/63/3
f 46/64/4 41/65/4 45/66/4
f 47/67/5 41/68/5 43/69/5
f 44/70/6 46/71/6 48/72/6
f 42/55/1 44/91/1 43/56/1
f 44/58/2 48/92/2 47/59/2
f 48/61/3 46/93/3 45/62/3
f 46/64/4 42/94/4 41/65/4
f 47/67/5 45/95/5 41/68/5
f 44/70/6 42/96/6 46/71/6
